:FULLY-SPECIFIED
:FORCE-ALL-JOINTS-BE-3DOF
:DEGREES
211
root 8.3886 16.5408 -7.78733 7.70165 0.778225 -4.09126
lfemur -42.3701 2.17317 -16.7214
ltibia 26.5448 -0 0
lfoot -14.0966 10.7202 -0.0394103
ltoes -14.9904 0 0
rfemur 3.1621 4.33349 29.2262
rtibia 14.1284 -0 0
rfoot -14.5873 4.62634 0.00751437
rtoes -10.0028 0 0
lowerback -6.14101 2.02531 1.84568
upperback -0.970466 2.48971 3.22204
thorax 2.37511 1.2501 2.48812
lowerneck -16.6697 -6.57604 -14.4089
upperneck 15.1372 -8.33462 14.9947
head 8.74686 -3.38889 6.45739
lclavicle -1.94623e-14 -5.56597e-15 0
lhumerus -49.0293 -9.55049 95.0825
lradius 26.6614 -0 0
lwrist 7.1626 0 0
lhand -11.562 -23.8041 0.00628354
lfingers 7.12502 -0 0
lthumb 14.4786 5.66439 0.00443072
rclavicle -1.94623e-14 -5.56597e-15 0
rhumerus -37.0856 10.8043 -81.748
rradius 50.8471 -0 0
rwrist -26.4346 0 0
rhand -32.7028 -28.2539 0.0246527
rfingers 7.12502 -0 0
rthumb -5.92715 -58.1472 0.0235059
212
root 8.41546 16.5357 -7.6238 7.76244 0.595136 -4.02443
lfemur -42.3853 2.37967 -16.9186
ltibia 26.9769 -0 0
lfoot -13.9296 10.5701 -0.0459805
ltoes -14.5925 0 0
rfemur 3.35101 4.23573 28.9678
rtibia 14.5914 -0 0
rfoot -13.9165 4.63341 0.00876978
rtoes -10.1521 0 0
lowerback -6.14778 2.02625 1.77564
upperback -1.02868 2.49777 3.1812
thorax 2.31735 1.25424 2.48441
lowerneck -16.7199 -6.55611 -14.3959
upperneck 15.2023 -8.30825 14.9828
head 8.77262 -3.37456 6.45661
lclavicle -1.94623e-14 -5.56597e-15 0
lhumerus -48.9301 -9.42294 94.8873
lradius 26.4751 -0 0
lwrist 6.7608 0 0
lhand -11.4454 -23.7698 0.00733088
lfingers 7.12502 -0 0
lthumb 14.5909 5.68949 0.00516922
rclavicle -1.94623e-14 -5.56597e-15 0
rhumerus -37.3596 10.7448 -81.8945
rradius 50.5614 -0 0
rwrist -26.3095 0 0
rhand -32.6042 -28.0948 0.0287623
rfingers 7.12502 -0 0
rthumb -5.83195 -57.9901 0.0274243
213
root 8.44232 16.5307 -7.46027 7.82302 0.411977 -3.95779
lfemur -42.4012 2.58611 -17.116
ltibia 27.409 -0 0
lfoot -13.7625 10.42 -0.0521131
ltoes -14.1946 0 0
rfemur 3.54033 4.13883 28.7092
rtibia 15.0543 -0 0
rfoot -13.2457 4.6405 0.00994227
rtoes -10.3013 0 0
lowerback -6.15455 2.02718 1.70559
upperback -1.08689 2.5058 3.14036
thorax 2.25959 1.25837 2.48069
lowerneck -16.7702 -6.53617 -14.383
upperneck 15.2675 -8.28186 14.9709
head 8.79839 -3.36022 6.45584
lclavicle -1.94623e-14 -5.56597e-15 0
lhumerus -48.8314 -9.29506 94.6923
lradius 26.2889 -0 0
lwrist 6.35901 0 0
lhand -11.3287 -23.7355 0.00830842
lfingers 7.12502 -0 0
lthumb 14.7033 5.71459 0.00585851
rclavicle -1.94623e-14 -5.56597e-15 0
rhumerus -37.6335 10.6846 -82.0407
rradius 50.2756 -0 0
rwrist -26.1843 0 0
rhand -32.5056 -27.9358 0.0325981
rfingers 7.12502 -0 0
rthumb -5.73673 -57.833 0.0310816
214
root 8.46918 16.5256 -7.29675 7.88338 0.228748 -3.89134
lfemur -42.4179 2.7925 -17.3135
ltibia 27.841 -0 0
lfoot -13.5955 10.2699 -0.057808
ltoes -13.7967 0 0
rfemur 3.73006 4.04278 28.4503
rtibia 15.5173 -0 0
rfoot -12.5749 4.6476 0.0110317
rtoes -10.4505 0 0
lowerback -6.16132 2.02809 1.63555
upperback -1.14512 2.51378 3.0995
thorax 2.20184 1.2625 2.47697
lowerneck -16.8204 -6.51622 -14.37
upperneck 15.3326 -8.25547 14.9591
head 8.82414 -3.34588 6.45507
lclavicle -1.94623e-14 -5.56597e-15 0
lhumerus -48.7332 -9.16684 94.4976
lradius 26.1026 -0 0
lwrist 5.95721 0 0
lhand -11.212 -23.7012 0.00921615
lfingers 7.12502 -0 0
lthumb 14.8156 5.7397 0.00649857
rclavicle -1.94623e-14 -5.56597e-15 0
rhumerus -37.9071 10.6237 -82.1866
rradius 49.9899 -0 0
rwrist -26.0592 0 0
rhand -32.407 -27.7767 0.0361601
rfingers 7.12502 -0 0
rthumb -5.64151 -57.6759 0.0344778
215
root 8.49604 16.5206 -7.13322 7.94353 0.0454493 -3.82509
lfemur -42.4353 2.99883 -17.5111
ltibia 28.2731 -0 0
lfoot -13.4284 10.1198 -0.0630653
ltoes -13.3988 0 0
rfemur 3.92021 3.94758 28.1911
rtibia 15.9802 -0 0
rfoot -11.904 4.65472 0.0120379
rtoes -10.5998 0 0
lowerback -6.16809 2.02901 1.5655
upperback -1.20334 2.52172 3.05864
thorax 2.14408 1.26663 2.47325
lowerneck -16.8706 -6.49625 -14.3571
upperneck 15.3978 -8.22906 14.9473
head 8.8499 -3.33154 6.45431
lclavicle -1.94623e-14 -5.56597e-15 0
lhumerus -48.6355 -9.0383 94.3031
lradius 25.9164 -0 0
lwrist 5.55541 0 0
lhand -11.0953 -23.6669 0.0100541
lfingers 7.12502 -0 0
lthumb 14.928 5.76481 0.0070894
rclavicle -1.94623e-14 -5.56597e-15 0
rhumerus -38.1805 10.5621 -82.3321
rradius 49.7042 -0 0
rwrist -25.9341 0 0
rhand -32.3084 -27.6176 0.0394482
rfingers 7.12502 -0 0
rthumb -5.54627 -57.5188 0.0376129
216
root 8.5229 16.5155 -6.96969 8.00347 -0.137919 -3.75904
lfemur -42.4533 3.2051 -17.7087
ltibia 28.7052 -0 0
lfoot -13.2613 9.9696 -0.0678847
ltoes -13.0009 0 0
rfemur 4.11076 3.85325 27.9316
rtibia 16.4431 -0 0
rfoot -11.2332 4.66184 0.0129607
rtoes -10.749 0 0
lowerback -6.17486 2.02991 1.49546
upperback -1.26158 2.52963 3.01777
thorax 2.08632 1.27076 2.46952
lowerneck -16.9208 -6.47628 -14.3442
upperneck 15.4629 -8.20263 14.9355
head 8.87566 -3.3172 6.45356
lclavicle -1.94623e-14 -5.56597e-15 0
lhumerus -48.5382 -8.90943 94.109
lradius 25.7302 -0 0
lwrist 5.15362 0 0
lhand -10.9787 -23.6326 0.0108222
lfingers 7.12502 -0 0
lthumb 15.0403 5.78991 0.00763101
rclavicle -1.94623e-14 -5.56597e-15 0
rhumerus -38.4537 10.4999 -82.4774
rradius 49.4185 -0 0
rwrist -25.8089 0 0
rhand -32.2097 -27.4585 0.0424624
rfingers 7.12502 -0 0
rthumb -5.45103 -57.3617 0.0404869
217
root 8.54976 16.5104 -6.80616 8.0632 -0.321356 -3.69317
lfemur -42.4721 3.4113 -17.9065
ltibia 29.1372 -0 0
lfoot -13.0942 9.81943 -0.0722662
ltoes -12.603 0 0
rfemur 4.30172 3.75978 27.6718
rtibia 16.9061 -0 0
rfoot -10.5624 4.66898 0.0138
rtoes -10.8982 0 0
lowerback -6.18163 2.0308 1.42541
upperback -1.31982 2.53748 2.97689
thorax 2.02857 1.27488 2.46578
lowerneck -16.971 -6.4563 -14.3313
upperneck 15.528 -8.17619 14.9237
head 8.90142 -3.30286 6.45281
lclavicle -1.94623e-14 -5.56597e-15 0
lhumerus -48.4415 -8.78024 93.9152
lradius 25.5439 -0 0
lwrist 4.75182 0 0
lhand -10.862 -23.5984 0.0115205
lfingers 7.12502 -0 0
lthumb 15.1526 5.81502 0.00812339
rclavicle -1.94623e-14 -5.56597e-15 0
rhumerus -38.7267 10.437 -82.6223
rradius 49.1328 -0 0
rwrist -25.6838 0 0
rhand -32.1111 -27.2993 0.0452027
rfingers 7.12502 -0 0
rthumb -5.35578 -57.2046 0.0430997
218
root 8.57662 16.5054 -6.64264 8.12272 -0.504862 -3.62749
lfemur -42.4916 3.61744 -18.1044
ltibia 29.5693 -0 0
lfoot -12.9271 9.66926 -0.0762097
ltoes -12.2051 0 0
rfemur 4.49308 3.66717 27.4117
rtibia 17.369 -0 0
rfoot -9.89159 4.67613 0.0145558
rtoes -11.0475 0 0
lowerback -6.18841 2.03169 1.35537
upperback -1.37807 2.5453 2.93601
thorax 1.97081 1.279 2.46204
lowerneck -17.0211 -6.4363 -14.3184
upperneck 15.5931 -8.14974 14.912
head 8.92718 -3.28852 6.45207
lclavicle -1.94623e-14 -5.56597e-15 0
lhumerus -48.3452 -8.65072 93.7217
lradius 25.3577 -0 0
lwrist 4.35002 0 0
lhand -10.7453 -23.5641 0.0121489
lfingers 7.12502 -0 0
lthumb 15.265 5.84013 0.00856653
rclavicle -1.94623e-14 -5.56597e-15 0
rhumerus -38.9994 10.3734 -82.7668
rradius 48.847 -0 0
rwrist -25.5587 0 0
rhand -32.0124 -27.1402 0.0476691
rfingers 7.12502 -0 0
rthumb -5.26052 -57.0475 0.0454513
219
root 8.60349 16.5003 -6.47911 8.18202 -0.688436 -3.562
lfemur -42.5119 3.82351 -18.3024
ltibia 30.0014 -0 0
lfoot -12.76 9.51907 -0.0797153
ltoes -11.8073 0 0
rfemur 4.68484 3.57543 27.1514
rtibia 17.832 -0 0
rfoot -9.22077 4.68328 0.0152278
rtoes -11.1967 0 0
lowerback -6.19518 2.03257 1.28532
upperback -1.43632 2.55308 2.89511
thorax 1.91305 1.28311 2.4583
lowerneck -17.0713 -6.41629 -14.3056
upperneck 15.6582 -8.12328 14.9003
head 8.95294 -3.27418 6.45134
lclavicle -1.94623e-14 -5.56597e-15 0
lhumerus -48.2493 -8.52088 93.5284
lradius 25.1714 -0 0
lwrist 3.94823 0 0
lhand -10.6286 -23.5298 0.0127076
lfingers 7.12502 -0 0
lthumb 15.3773 5.86524 0.00896045
rclavicle -1.94623e-14 -5.56597e-15 0
rhumerus -39.272 10.3091 -82.911
rradius 48.5613 -0 0
rwrist -25.4335 0 0
rhand -31.9138 -26.9811 0.0498615
rfingers 7.12502 -0 0
rthumb -5.16526 -56.8903 0.0475417
220
root 8.63035 16.4952 -6.31558 8.24113 -0.872077 -3.4967
lfemur -42.5328 4.02951 -18.5005
ltibia 30.4334 -0 0
lfoot -12.5929 9.36887 -0.0827827
ltoes -11.4094 0 0
rfemur 4.87699 3.48457 26.8907
rtibia 18.2949 -0 0
rfoot -8.54996 4.69044 0.015816
rtoes -11.3459 0 0
lowerback -6.20196 2.03344 1.21528
upperback -1.49458 2.56081 2.85421
thorax 1.85529 1.28722 2.45455
lowerneck -17.1215 -6.39627 -14.2927
upperneck 15.7233 -8.0968 14.8886
head 8.97869 -3.25984 6.45061
lclavicle -1.94623e-14 -5.56597e-15 0
lhumerus -48.154 -8.39072 93.3354
lradius 24.9852 -0 0
lwrist 3.54643 0 0
lhand -10.512 -23.4955 0.0131964
lfingers 7.12502 -0 0
lthumb 15.4897 5.89035 0.00930512
rclavicle -1.94623e-14 -5.56597e-15 0
rhumerus -39.5443 10.2441 -83.0549
rradius 48.2756 -0 0
rwrist -25.3084 0 0
rhand -31.8151 -26.822 0.0517799
rfingers 7.12502 -0 0
rthumb -5.06999 -56.7332 0.0493708
221
root 8.65721 16.4902 -6.15206 8.30002 -1.05579 -3.43158
lfemur -42.5545 4.23544 -18.6988
ltibia 30.8655 -0 0
lfoot -12.4258 9.21866 -0.085412
ltoes -11.0115 0 0
rfemur 5.06955 3.39457 26.6298
rtibia 18.7579 -0 0
rfoot -7.87914 4.69761 0.0163204
rtoes -11.4951 0 0
lowerback -6.20874 2.0343 1.14523
upperback -1.55284 2.56851 2.8133
thorax 1.79753 1.29132 2.4508
lowerneck -17.1717 -6.37624 -14.2799
upperneck 15.7884 -8.07031 14.877
head 9.00445 -3.2455 6.44989
lclavicle -1.94623e-14 -5.56597e-15 0
lhumerus -48.0591 -8.26025 93.1427
lradius 24.7989 -0 0
lwrist 3.14463 0 0
lhand -10.3953 -23.4612 0.0136154
lfingers 7.12502 -0 0
lthumb 15.602 5.91546 0.00960056
rclavicle -1.94623e-14 -5.56597e-15 0
rhumerus -39.8164 10.1785 -83.1984
rradius 47.9899 -0 0
rwrist -25.1833 0 0
rhand -31.7164 -26.6629 0.0534243
rfingers 7.12502 -0 0
rthumb -4.97472 -56.5761 0.0509386
222
root 8.68407 16.4851 -5.98853 8.35871 -1.23956 -3.36665
lfemur -42.5769 4.44129 -18.8971
ltibia 31.2976 -0 0
lfoot -12.2586 9.06845 -0.0876032
ltoes -10.6136 0 0
rfemur 5.26249 3.30546 26.3687
rtibia 19.2208 -0 0
rfoot -7.20832 4.70478 0.0167408
rtoes -11.6444 0 0
lowerback -6.21551 2.03515 1.07519
upperback -1.61111 2.57616 2.77238
thorax 1.73977 1.29543 2.44705
lowerneck -17.2218 -6.3562 -14.2671
upperneck 15.8534 -8.04381 14.8653
head 9.0302 -3.23116 6.44918
lclavicle -1.94623e-14 -5.56597e-15 0
lhumerus -47.9647 -8.12946 92.9503
lradius 24.6127 -0 0
lwrist 2.74284 0 0
lhand -10.2786 -23.4269 0.0139646
lfingers 7.12502 -0 0
lthumb 15.7144 5.94058 0.00984676
rclavicle -1.94623e-14 -5.56597e-15 0
rhumerus -40.0883 10.1122 -83.3416
rradius 47.7041 -0 0
rwrist -25.0581 0 0
rhand -31.6178 -26.5037 0.0547946
rfingers 7.12502 -0 0
rthumb -4.87944 -56.419 0.0522452
